<?xml version="1.0" encoding="UTF-8"?>
<svg id="Layer_2" data-name="Layer 2" xmlns="http://www.w3.org/2000/svg" viewBox="0 0 137.63 137.63">
  <defs>
    <style>
      .cls-1 {
        fill: none;
      }

      .cls-2 {
        fill: #ffffff;
      }
    </style>
  </defs>
  <g id="Layer_1-2" data-name="Layer 1">
    <g>
      <g>
        <path class="cls-2" d="m27.4,115.26h8.33s-2.56-15-12.89-21.89c0,0,5.22,10.11,4.56,21.89Z"/>
        <path class="cls-2" d="m38.62,115.26h22.33s1.11-20.33,8.44-36.33c0,0-12.56,8.78-14.16,26.67,0,0-2.73-20.34,3.83-36.34,0,0-12.22,8.44-13.56,36,0,0-3.22-15-13.11-24.44,0,0,5.33,12.56,6.22,34.44Z"/>
        <path class="cls-2" d="m63.18,115.26h8.22s-.6-7.28,1.28-20.11c0,0-7.92,8.68-9.5,20.11Z"/>
        <path class="cls-2" d="m78.73,115.26h15.67s.56-21.78,7.67-36.33c0,0-10,10.22-13.33,24.44,0,0-1.44-18.67-14.89-29.78,0,0,6.33,18.67,4.89,41.67Z"/>
        <path class="cls-2" d="m98.73,115.26h8.89s-.78-11.22,3.56-24.11c0,0-11.11,10.11-12.44,24.11Z"/>
        <path class="cls-2" d="m24.85,27.15l-9.22,23.78,23.22,13.78s37.23-.88,51.65-1.82c2.37-1.03,7.84-8.83.22-15.37-.52-.45-1.18-.7-1.87-.68l-20.92.45s.24-4.62,26.62-4.79c.96,0,1.87.41,2.5,1.15,3.03,3.57,11.03,13.08,11.3,13.17.33.11,1.05,1.61,4.83,1.61,1.44,0,2.36-1.69,3.75-2.11,1.67-.5,2.81-.49,3.92-2.26s1.89-3.22.11-5.89c-1.51-2.26-15.11-19.26-19.18-24.34-.73-.91-1.83-1.43-2.99-1.43h-32.6c-11,0-17,4.78-41.33,4.78Z"/>
      </g>
      <rect class="cls-1" width="137.63" height="137.63"/>
    </g>
  </g>
</svg>