<?xml version="1.0" encoding="UTF-8"?>
<svg id="Layer_2" data-name="Layer 2" xmlns="http://www.w3.org/2000/svg" viewBox="0 0 137.63 137.63">
  <defs>
    <style>
      .cls-1 {
        fill: none;
      }

      .cls-2 {
        fill: #ffffff;
      }
    </style>
  </defs>
  <g id="Layer_1-2" data-name="Layer 1">
    <g>
      <g>
        <path class="cls-2" d="m105.99,99.72c-6.48,3.59-13.34,5.02-20.7,4.07-1.02-.13-1.57-.52-1.55-1.66.02-1.24-.09-2.5-.22-3.74-.08-.8.2-1.09.97-.97.12.02.26.03.37.08,3.13,1.04,7.3,1.01,9.84.56,5.06-1.38,9.69-3.45,12.9-7.87,2.65-3.63,3.73-7.78,3.82-12.18.04-2.29-.77-4.45-1.89-6.5-2.15-3.96-5.33-6.87-8.79-9.06,1.44-2.86,3.24-5.45,4.11-8.32,2.61-8.71-1.41-17.17-9.4-20.75-5.82-2.61-11.86-2.69-17.89-.57-.75.27-1.22.28-1.61-.52-4.22-8.74-13.64-12.31-23.26-9.38-7.5,2.28-12.45,9.2-11.94,17.01.06.91.21,1.82.19,2.72,0,.31-.3.75-.59.9-5.5,2.88-8.68,9.94-5.81,15.81.43.88.22,1.44-.51,2.03-3.93,3.2-6.34,7.35-7.39,12.27-1.14,5.31-.36,10.29,2.35,15.11,1.35,2.41,3.39,4.03,5.09,6.04,1.31,1.56,3.03,2.33,4.77,3.15.19.09.39.14.57.25,4.14,2.47,8.74,2.55,13.33,2.49,1.73-.02,3.1.46,4.33,1.54,1.05.93.5,2.13.28,3.16-.08.39-.88.8-1.4.89-7.8,1.3-15.12-.15-21.78-4.35-7.22-4.55-12.18-10.86-13.5-19.48-.87-5.7-.18-11.26,2.36-16.56,1.16-2.42,2.96-4.29,4.49-6.41.34-.47.6-1.22.5-1.77-1.03-5.88.47-10.93,4.67-15.21,1.38-1.41,2.19-2.98,2.29-5.2.41-9.01,6.57-16.76,15.24-19.75,5.65-1.95,11.34-2.22,17.02-.26,4.44,1.53,8.09,4.26,11,7.92.65.82,1.28.94,2.13.74,11.59-2.81,25.95,2.76,30.45,17.26,1.43,4.6,1.08,9.3-.77,13.81-.45,1.11-.98,2.19-1.36,3.33-.11.31.05.91.31,1.12,3.81,3.2,5.94,7.42,7.43,12.03,1.75,5.42.75,10.65-1.41,15.67-.89,2.06-2.4,3.86-3.64,5.77-.33.51-2.87,3.37-5.38,4.75Z"/>
        <path class="cls-2" d="m57.98,90.32c1.87.67,3.62,1.3,5.49,1.97.7-1.27.44-2.63.15-3.86-.67-2.83-1.42-5.65-2.34-8.4-2.5-7.49-5.9-14.56-10.23-21.17-1.04-1.59-1.95-3.27-3-5.06,1.43-1.1,2.93-2.25,4.57-3.5,7.18,9.24,13.12,19.3,18.3,30.12,4.62-8.88,8.86-17.79,15.89-24.42,1.3,1.11,2.4,1.99,3.4,2.97.21.2.19.87.01,1.18-.59,1.05-1.26,2.06-1.98,3.03-3.6,4.86-6.19,10.25-7.98,15.99-1.45,4.66-2.01,9.52-2.3,14.39-.51,8.61.46,17.1,2.15,25.53.07.36.21.79.1,1.1-.12.33-.48.79-.78.82-4.88.51-9.77,1.01-14.68.29-1.07-.16-2.14-.31-3.22-.4-1.29-.11-1.17-.84-.92-1.76.61-2.33,1.29-4.65,1.72-7.02.55-3.03.92-6.09,1.28-9.14.11-.93.09-1.95-.16-2.84-.19-.67-.76-1.36-1.34-1.78-1.64-1.19-3.38-2.23-5.06-3.37-.18-.13-.34-.53-.28-.73.36-1.27.78-2.52,1.24-3.93Z"/>
      </g>
      <rect class="cls-1" width="137.63" height="137.63"/>
    </g>
  </g>
</svg>