<?xml version="1.0" encoding="UTF-8"?>
<svg id="Layer_2" data-name="Layer 2" xmlns="http://www.w3.org/2000/svg" viewBox="0 0 137.63 137.63">
  <defs>
    <style>
      .cls-1 {
        fill: none;
      }

      .cls-2 {
        fill: #007548;
      }
    </style>
  </defs>
  <g id="Layer_1-2" data-name="Layer 1">
    <g>
      <path class="cls-2" d="m76.62,49.3c1.47,2.24,3,4.31,4.26,6.54,1.73,3.07,2.61,6.45,3.19,9.92,1.47,8.71.55,17.46,0,26.14-.52,8.36-1.4,16.75-3.48,24.93-.52,2.06-1,4.12-1.54,6.17-.58,2.21-1.98,3.27-4.24,3.27-3.83,0-7.67-.04-11.5.02-1.8.03-3.23-.61-4.43-1.9-.8-.85-1.7-1.61-2.46-2.49-1.84-2.13-5.84-1.83-7.5-.17-.83.82-1.68,1.62-2.46,2.49-1.21,1.34-2.64,2.1-4.48,2.09-3.96-.02-7.92.03-11.87-.03-1.8-.03-3.32-.77-3.78-2.67-.99-4.08-1.96-8.16-2.77-12.28-1.68-8.64-2.55-17.38-2.88-26.17-.23-6.15-.76-12.3.05-18.47,1.08-8.25,4.75-15.03,11.34-20.11,1.71-1.31,2.38-2.72,2.09-4.77-.14-1.02-.09-2.08-.03-3.12.12-2.11,1.28-3.16,3.39-3.17.77,0,1.55,0,2.32,0,.06-.1.11-.2.17-.31-.45-.35-.89-.72-1.35-1.06-3.95-2.84-6.36-6.61-6.46-11.54-.12-6.03,3.22-10.04,9.55-10.77,5.35-.61,10.8-.5,16.2-.57,1.94-.03,3.93.15,5.82.56,2.56.56,5.07,1.4,6.86,3.55,3,3.61,3.14,9.94.29,14.17-1.34,2-3.01,3.66-5.01,5-.27.18-.51.39-1.1.85.85.04,1.34.08,1.83.08,1.47,0,3-.08,3.81,1.52.27.54.53,1.15.54,1.74.02,1.7-.12,3.41-.15,5.11,0,.5.14,1.01.21,1.51.12.04.24.09.36.13.4-.42.83-.83,1.21-1.28,3.87-4.61,8.92-6.12,14.7-4.38,4.7,1.42,8.85,6.48,8.95,11.4.16,7.27.1,14.55.1,21.83,0,9.87-.04,19.75-.05,29.62,0,3.5,0,7,.04,10.5.04,4.17,3.7,6.71,7.58,5.29,1.8-.66,3.35-2.82,3.37-4.85.04-4,.03-8,.02-12,0-.31-.06-.75-.26-.9-1.93-1.42-1.67-3.38-1.5-5.39.07-.88-.24-1.79-.23-2.68.03-2.91.13-5.83.19-8.74.02-.73,0-1.46,0-2.2l-.48-.08c-.25.95-.5,1.89-.73,2.84-.35,1.41-.63,2.84-1.03,4.24-.43,1.47-1.47,2.08-2.84,1.78-.97-.21-1.66-1.24-1.37-2.59.6-2.84,1.3-5.67,2.14-8.46.18-.61,1.02-1.14,1.68-1.46,1.22-.59,2.33-1.19,3.03-2.46.5-.9,1.29-1.64,1.91-2.49.15-.2.19-.52.19-.79-.03-6.58-.14-13.16-.07-19.74.01-1.36.48-2.8,1.04-4.07,1.02-2.32,2.25-4.55,3.41-6.8.72-1.4,2.13-1.87,3.55-1.21,1.16.53,1.69,1.92,1.11,3.3-.97,2.3-1.99,4.58-3.06,6.83-.71,1.5-1.05,3.02-1.02,4.7.08,5.41.08,10.82.07,16.23,0,.87.2,1.52.89,2.06.88.7,1.3,1.57,1.31,2.78.03,5.37.18,10.73.27,16.1.02,1.31,0,2.62,0,3.93,0,1.5.05,2.93-1.28,4.09-.77.68-.89,1.71-.75,2.87.22,1.85.08,3.74.04,5.61-.04,2.29.11,4.61-.25,6.85-.87,5.39-6.17,9.58-11.62,9.44-5.68-.15-10.83-4.55-11.29-10.09-.33-3.96-.05-7.97-.05-11.96,0-1.81-.04-3.63-.04-5.44,0-2.23.07-4.47.05-6.7-.01-2.49-.13-4.98-.12-7.47.02-6.2.12-12.41.12-18.61,0-4.33-.08-8.65-.22-12.98-.11-3.1-2.23-5.6-5.13-6.46-2.9-.86-6.33.39-7.62,2.82-.21.39-.56.71-.73.93Zm-23.78,39.13s0-.07,0-.1c5.74,0,11.49-.02,17.23.01,1.29,0,1.79-.53,1.78-1.79,0-2.33.08-4.66.08-6.99,0-5.12-.05-10.24-.07-15.36,0-1.96-.17-2.24-2.08-2.26-6.49-.07-12.97-.09-19.46-.1-5.04,0-10.08,0-15.11.04-1.87.02-1.87.07-1.88,1.9,0,7.12,0,14.24,0,21.36,0,3.22.04,3.27,3.27,3.28,5.41,0,10.82,0,16.24,0Zm-.31-56.16c.77-.07,1.81-.13,2.84-.25,3.68-.43,6.9-1.86,9.48-4.55,2.05-2.13,2.41-5.68.97-7.98-.42-.68-.89-.83-1.66-.66-2.59.57-5.18,1.27-7.8,1.54-5.04.51-10.07.31-14.92-1.41-1.05-.37-1.69-.11-2.18.77-.28.5-.56,1.04-.68,1.59-.65,2.95.65,5.23,2.74,7.07,3.11,2.73,6.88,3.75,11.22,3.88Z"/>
      <rect class="cls-1" width="137.63" height="137.63"/>
    </g>
  </g>
</svg>