<?xml version="1.0" encoding="UTF-8"?>
<svg id="Layer_2" data-name="Layer 2" xmlns="http://www.w3.org/2000/svg" viewBox="0 0 137.63 137.63">
  <defs>
    <style>
      .cls-1 {
        fill: none;
      }

      .cls-2 {
        fill: #007548;
      }
    </style>
  </defs>
  <g id="Layer_1-2" data-name="Layer 1">
    <g>
      <g>
        <path class="cls-2" d="m40.63,50c.13-2.16,1.51-3.3,3.87-3.08,2.43.23,2.37.21,3.2-2.13,2.35-6.66,6.92-11.46,12.84-15.09,6.46-3.96,13.53-5.13,20.98-4.59,5.59.41,10.76,2.11,15.41,5.25,1.16.79,2.27.96,3.63.69,8.38-1.65,19.34,2.78,23.4,11.03.6,1.22,1.01,2.55,1.35,3.88.19.72.47.93,1.17.95.91.03,1.82.17,2.72.33,1.94.36,3.23,2.38,2.52,4.42-.67,1.95-1.69,3.78-2.65,5.61-2.26,4.31-4.58,8.59-6.89,12.87-.65,1.21-1.29,2.43-2.06,3.55-.19.28-1.03.46-1.31.28-4.14-2.61-8.77-2.62-13.31-2.17-2.43.24-4.93,1.31-7.08,2.56-2.26,1.32-4.23,3.2-6.16,5.02-1.01.95-1.73,1.3-3.19.85-4.32-1.33-8.74-2.36-13.11-3.52-6.75-1.79-13.49-3.58-20.24-5.38-3.44-.92-6.87-1.88-10.33-2.74-2.02-.5-2.05-.42-2.38-2.45-.8-4.92-1.6-9.85-2.38-14.77-.06-.4,0-.83,0-1.39Zm11.3-3.11c1.17,0,2.15,0,3.14,0,21.19.01,42.39.03,63.58.04,1.72,0,1.9-.23,1.25-1.6-3.57-7.53-13.04-11.46-20.91-8.63-.92.33-1.57.21-2.27-.39-3.33-2.84-7.17-4.6-11.42-5.58-12.45-2.87-27.07,1.48-33.37,16.16Z"/>
        <path class="cls-2" d="m111.93,98.59c-3.2-.88-6.38-1.82-9.58-2.71-1.32-.37-2.66-.63-3.99-.97-2.2-.56-4.4-1.11-6.59-1.72-2.75-.76-5.48-1.6-8.24-2.33-.36-.1-.97.14-1.25.44-3.59,3.82-7.15,7.68-10.7,11.53-1.33,1.44-2.64,2.89-3.93,4.36-3.43,3.92-7.73,5.5-12.87,4.77-2.85-.4-4.76-2.13-5.55-4.77-.58-1.96-.55-4.09-.82-6.14-.26-2-.59-3.99-.83-6-.5-4.24-.99-8.49-1.43-12.74-.12-1.18-.61-1.64-1.79-1.94-5.36-1.37-10.67-2.88-16.01-4.34-5.37-1.48-10.75-2.96-16.12-4.43-1.44-.39-2.88-.76-4.34-1.06-1.37-.29-2.01-1.23-2.13-2.46-.31-3.2.74-5.01,4.05-4.24,5.1,1.19,10.16,2.55,15.22,3.91,3.89,1.05,7.73,2.24,11.61,3.3,7.13,1.94,14.27,3.84,21.41,5.72,5.63,1.48,11.29,2.86,16.92,4.36,5.67,1.51,11.32,3.08,16.96,4.71.97.28,1.1-.38,1.36-.85,1.63-2.88,3.89-5.18,6.82-6.6,5.57-2.7,11.23-3.12,17.04-.34,5.22,2.5,8.26,6.61,9.58,12.04.5,2.03.38,4.21.53,6.14.55-.16,1.27-.62,1.76-.45.6.21,1.18.87,1.48,1.48,1.21,2.49.41,4.67-2.06,5.22-1.09.25-2.37-.11-3.51-.39-2.98-.74-5.94-1.6-8.91-2.38-1.04-.27-3.38-.95-4.11-1.15Zm-35.12-9.55c-8.38-2.2-16.49-4.32-24.71-6.48,0,.51-.02.75,0,.99.55,4.92,1.11,9.85,1.68,14.77.26,2.23.51,4.47.88,6.68.07.45.62,1.12,1.01,1.17,2.84.35,5.41-.11,7.46-2.45,2.46-2.82,5.08-5.5,7.63-8.24,1.94-2.08,3.9-4.15,6.05-6.43Zm41.69,3.98c-.26-3.57-3.16-6.86-6.54-7.87-4.22-1.26-7.76.12-10.41,3.18,5.64,1.56,11.19,3.1,16.95,4.7Z"/>
        <path class="cls-2" d="m123.28,106.02c-2.53,2.48-5.06,4.52-8.24,5.59-9.43,3.17-18.97-1.12-22.9-10.28-.39-.91-.72-1.86-.95-2.82-.05-.22.51-.85.65-.81,2.83.8,5.68,1.59,8.45,2.57,1.07.38,2.01,1.16,2.96,1.84,2.57,1.85,5.32,2.67,8.46,1.67.54-.17,1.18-.35,1.71-.22,3.22.76,6.43,1.6,9.86,2.47Z"/>
      </g>
      <rect class="cls-1" width="137.63" height="137.63"/>
    </g>
  </g>
</svg>