<?xml version="1.0" encoding="UTF-8"?>
<svg id="Layer_2" data-name="Layer 2" xmlns="http://www.w3.org/2000/svg" viewBox="0 0 137.63 137.63">
  <defs>
    <style>
      .cls-1 {
        fill: none;
      }

      .cls-2 {
        fill: #ffffff;
      }
    </style>
  </defs>
  <g id="Layer_1-2" data-name="Layer 1">
    <g>
      <g>
        <path class="cls-2" d="m115.27,80.76c0,3.08.12,6.16-.04,9.23-.13,2.55-1.44,3.49-3.94,2.96-3.53-.76-7.04-1.66-10.55-2.5-1.98-.47-3.98-.89-5.94-1.42-2.7-.73-3.55-1.82-3.6-4.64-.04-2.12.08-4.24,0-6.36-.02-.57-.37-1.3-.8-1.67-2.19-1.86-4.43-3.65-6.7-5.42-1.71-1.33-2.5-3.05-2.5-5.19,0-4.46-.03-8.91-.01-13.37,0-2.6,1.69-3.89,4.26-3.72,2.44.16,4.91.13,7.35-.06,2.64-.21,4.86.41,6.59,2.48,1.89,2.27,3.73,4.57,5.64,6.83,2.68,3.17,5.39,6.32,8.12,9.44,1.56,1.78,2.31,3.8,2.26,6.16-.05,2.41-.01,4.83-.01,7.25-.05,0-.1,0-.15,0Z"/>
        <path class="cls-2" d="m75.15,51.46c0,2.46.16,4.93-.06,7.36-.12,1.29-.58,2.8-1.42,3.72-3.34,3.65-6.9,7.09-10.36,10.64-1.45,1.49-2.75,3.13-4.29,4.51-.75.68-1.85,1.27-2.83,1.33-3.28.21-6.57.2-9.86.19-1.08,0-2.52-1.8-2.58-3.16-.14-3.62-.3-7.23-.32-10.85-.02-3.36,1.25-6.12,3.76-8.5,2.46-2.34,4.52-5.11,6.85-7.59.84-.89,1.88-1.7,2.99-2.19,4.44-1.97,8.95-3.8,13.44-5.68.27-.11.55-.19.83-.27,2.29-.68,3.8.35,3.87,2.74.07,2.58.02,5.16.02,7.75-.01,0-.03,0-.04,0Z"/>
        <path class="cls-2" d="m22.2,40.51c0-4.5,0-9,0-13.5,0-2.04,1.06-3.27,3.06-3.57,2.97-.45,5.58.27,7.85,2.32,4.7,4.24,9.45,8.43,14.18,12.65.5.44,1.02.87,1.48,1.34,1.89,1.95,1.96,3.45.1,5.43-1.62,1.73-3.37,3.35-5.07,5-1.91,1.85-3.86,3.66-5.75,5.53-1.17,1.15-2.54,1.98-4.17,2.03-2.83.08-5.67.08-8.5-.06-2.29-.11-3.17-1.16-3.19-3.54-.04-3.38,0-6.75,0-10.13,0-1.17,0-2.33,0-3.5h.01Z"/>
        <path class="cls-2" d="m22.2,103.7c0-2.21.08-4.42-.02-6.62-.1-2.08.99-3.58,2.49-4.59,3.2-2.16,6.56-4.09,9.89-6.06,1.7-1,3.48-1.19,5.37-.37,2.09.91,4.27,1.63,6.37,2.53,2.05.88,3.09,2.46,2.82,4.76,0,.08-.02.17,0,.25.57,3.62-.67,6.69-2.84,9.5-2.16,2.8-4.29,5.63-6.35,8.5-1.25,1.75-2.95,2.57-4.99,2.62-3.2.08-6.41.08-9.62.02-1.72-.03-3.08-1.53-3.1-3.3-.03-2.42,0-4.83,0-7.25h0Z"/>
        <path class="cls-2" d="m84.92,87.03c0,3.33.04,6.65-.01,9.98-.03,2.16-1.44,3.46-3.59,3.11-2.86-.46-5.67-1.19-8.51-1.76-1.95-.39-3.92-.7-5.88-1.03-1.39-.23-2.79-.41-4.18-.68-1.52-.3-3.05-.64-4.54-1.07-1.96-.57-2.01-2.39-2.26-3.93-.49-3.15.47-5.67,3.52-7.12.64-.3,1.2-.76,1.85-1.04,4.37-1.91,7.72-5.15,11.03-8.44,1.44-1.43,3.17-1.59,4.85-.41,1.84,1.28,3.62,2.62,5.46,3.89,1.72,1.18,2.55,2.78,2.52,4.86-.02,1.21,0,2.42,0,3.62-.09,0-.18,0-.27,0Z"/>
        <path class="cls-2" d="m76.29,28.47c-.12.9-.14,1.83-.37,2.7-.34,1.29-1.06,2.33-2.42,2.8-4.35,1.52-8.7,3.06-13.04,4.61-1.91.68-3.58.35-5.1-.98-3.84-3.38-7.72-6.71-11.49-10.17-.56-.52-.94-1.69-.76-2.41.15-.63,1.14-1.16,1.86-1.51.52-.25,1.22-.19,1.84-.19,8.07,0,16.15.01,24.22,0,4.17,0,5.16.96,5.26,5.13Z"/>
        <path class="cls-2" d="m103.34,114.31c-2.54,0-5.08-.01-7.63,0-3.19.02-4.46-1.11-4.51-4.24-.06-3.62-.02-7.25,0-10.87,0-.93,1.74-2.22,3.01-2.03,3.86.6,7.7,1.33,11.55,1.98,1.96.33,3.94.58,5.91.91,2.38.39,3.63,1.74,3.72,4.13.08,2.25.08,4.5.06,6.75-.02,1.75-1.12,3.09-2.87,3.16-3.08.12-6.16.03-9.24.03,0,.06,0,.12,0,.17Z"/>
        <path class="cls-2" d="m66.5,114.31c-4.46,0-8.92,0-13.37,0-.58,0-1.17,0-1.74-.09-2.39-.34-3.2-2.25-1.8-4.29,1.42-2.06,2.91-4.06,4.38-6.08.24-.33.48-.69.8-.95,1.09-.9,2.24-1.46,3.77-1.17,7.03,1.36,14.07,2.65,21.1,3.96.78.15,1.57.22,2.33.43,2.1.58,3.47,2.63,3.17,4.63-.35,2.31-1.95,3.57-4.51,3.57-4.71,0-9.42,0-14.12,0,0,0,0-.01,0-.02Z"/>
        <path class="cls-2" d="m91.84,23.33c2.04,0,4.08-.03,6.13,0,2.47.04,3.69,1.32,3.27,3.74-.46,2.65-1.21,5.26-1.84,7.89-.37,1.54-.77,3.07-1.16,4.6-.43,1.68-1.83,2.95-3.56,2.98-2.79.05-5.58-.02-8.37-.03-.66,0-1.35.13-1.98,0-1.78-.36-2.55-1.69-2.66-3.34-.13-1.87-.07-3.74-.07-5.62,0-2.25-.08-4.5.09-6.74.17-2.29,1.36-3.35,3.66-3.44,2.16-.08,4.33-.02,6.5-.02,0,0,0-.01,0-.02Z"/>
        <path class="cls-2" d="m22.26,74.77c0-2.7-.02-5.41,0-8.11.02-2.32,1.05-3.54,3.31-3.73,1.89-.16,3.81-.22,5.7-.11,3.2.17,5.17,1.97,5.36,5.15.19,3.02.09,6.07-.05,9.1-.09,1.86-1.39,3.04-2.92,3.94-2.43,1.44-4.84,2.91-7.29,4.32-2.27,1.3-4.11.29-4.17-2.32-.07-2.74-.01-5.49-.01-8.24.02,0,.04,0,.06,0Z"/>
        <path class="cls-2" d="m115.46,40.26c0,4.29.02,8.58-.02,12.88,0,.69-.15,1.42-.42,2.05-.55,1.27-2.4,1.6-3.34.6-2.04-2.18-4.02-4.41-6.03-6.61-1.38-1.51-1.72-3.25-1.26-5.22,1.34-5.79,2.65-11.59,3.96-17.39.34-1.52,1.23-2.51,2.7-3,1.94-.64,3.75.35,4.23,2.34.12.48.15.99.16,1.48.01,4.29,0,8.58,0,12.88,0,0,.01,0,.02,0Z"/>
      </g>
      <rect class="cls-1" width="137.63" height="137.63"/>
    </g>
  </g>
</svg>