<?xml version="1.0" encoding="UTF-8"?>
<svg id="Layer_2" data-name="Layer 2" xmlns="http://www.w3.org/2000/svg" viewBox="0 0 137.63 137.63">
  <defs>
    <style>
      .cls-1 {
        fill: none;
      }

      .cls-2 {
        fill: #ffffff;
      }
    </style>
  </defs>
  <g id="Layer_1-2" data-name="Layer 1">
    <g>
      <g>
        <path class="cls-2" d="m93.92,87.73c-7.45,0-14.91,0-22.37,0-7.96,0-15.92.03-23.87.01-1.3,0-2.59-.16-4.01-.26-.08,1.28-.1,2.76-.27,4.23-1.28,11.19-11.76,18.6-22.72,15.98-3.34-.8-6.38-2.44-8.68-4.96-2.94-3.21-5.23-6.92-5.48-11.46-.34-6.32,1.72-11.72,6.64-15.84,1.44-1.21,2.89-2.5,4.93-2.78.42-.06.95-.89,1.04-1.43.15-.93.27-2.03-.09-2.83-.54-1.19-1.7-.24-2.57-.26-2.4-.05-4.8-.02-7.27-.02v-9.76h9.07c0-.24.11-.78-.02-1.26-1.36-5.23-2.77-10.44-4.14-15.66-.74-2.81.87-5.21,3.73-5.64,1.78-.27,3.66.68,4.19,2.4,1.19,3.85,2.25,7.74,3.31,11.63.77,2.84.73,2.84,3.62,2.89,3.71.06,7.41.17,11.12.2,1.62.01,3.24-.17,4.86-.17,3.35,0,5.27,2.31,4.62,5.59-.32,1.6-1.52,2.42-2.98,2.89-.65.21-1.33.37-2.13.59,1.03,1.71,1.97,3.27,2.89,4.83,1.17,1.97,2.31,3.95,3.51,5.9.2.32.66.68,1,.68,5.5.04,11,.02,16.5.02.08,0,.15-.06.39-.15,0-1.34,0-2.74,0-4.14,0-6.46.01-12.91-.05-19.37,0-.61-.34-1.35-.77-1.81-1.26-1.37-2.63-2.64-3.81-3.79-1.02.9-2.04,1.75-2.99,2.66-1.52,1.45-3.82,1.57-5.3.22-1.37-1.26-1.49-3.72-.06-5.19,3.72-3.81,7.5-7.58,11.31-11.31,1.37-1.34,3.48-1.27,4.87-.03,1.44,1.28,1.66,3.19.44,4.82-.56.76-1.27,1.43-1.99,2.05-1.01.89-1.13,1.5-.21,2.47,1.24,1.31,2.53,2.19,4.61,2.17,11.71-.13,23.41-.08,35.12-.07,6.7,0,11.47,3.16,14.56,9,.16.31.23.67.41,1.2-1.2,0-2.22.01-3.23,0-3.31-.05-3.3-.05-3.27,3.25.01,1.54.02,3.09-.09,4.62-.06.82.23,1.01.96,1.01,1.87-.01,3.75.06,5.62.02.99-.02,1.27.33,1.26,1.3-.05,4.46-.06,8.92.01,13.37.01.81.31,1.76.81,2.39,7.75,9.79,4.31,23.75-7.12,28.78-10.5,4.61-22.39-1.46-25.17-12.94-.46-1.91-.51-3.93-.76-6.04Zm-68.89-6.81c-4.98.1-8.6,3.44-8.91,9.47-.2,4.01,4.63,7.99,9.13,8.15,3.62.13,9.05-4.14,8.68-8.95-.33-4.28-3.19-8.47-8.9-8.67Zm87.34-.01c-4.9.07-8.5,3.95-8.44,9.09.06,4.54,4.03,8.44,8.55,8.36,5.57-.1,8.84-4.17,8.78-8.67-.06-5.13-3.53-8.79-8.89-8.78Z"/>
        <path class="cls-2" d="m93.22,104.76h-48.74c.27-.48.42-.88.68-1.2,2.14-2.66,3.3-5.77,3.9-9.07.2-1.12.66-1.28,1.63-1.27,10.16.03,20.31.02,30.47.01,2.08,0,4.16-.04,6.24-.07.65-.01,1.1.13,1.23.9.62,3.71,1.98,7.11,4.32,10.09.07.09.09.22.26.62Z"/>
      </g>
      <rect class="cls-1" width="137.63" height="137.63"/>
    </g>
  </g>
</svg>