<?xml version="1.0" encoding="UTF-8"?>
<svg id="Layer_2" data-name="Layer 2" xmlns="http://www.w3.org/2000/svg" viewBox="0 0 137.63 137.63">
  <defs>
    <style>
      .cls-1 {
        fill: none;
      }

      .cls-2 {
        fill: #007548;
      }
    </style>
  </defs>
  <g id="Layer_1-2" data-name="Layer 1">
    <g>
      <g>
        <path class="cls-2" d="m17.41,97.9c.7-.42,1.4-.85,2.11-1.27,5.29-3.15,10.58-6.29,15.88-9.44,2.72-1.61,5.68-2.02,8.78-1.85,7.86.41,15.72.79,23.58,1.18,6.57.33,13.15.62,19.72,1.03,4.3.27,6.84,3.34,6.63,7.79-.18,3.97-3.11,6.71-7.27,6.64-5.75-.1-11.49-.31-17.24-.47-.94-.03-1.87,0-3.12,0,.42.33.58.5.77.6,3.33,1.7,6.74,2.88,10.58,2.94,5.03.09,10.06.55,15.09.86.58.03,1.17.04,1.74.1.83.09,1.33-.25,1.86-.92,1.84-2.31,3.79-4.54,5.71-6.79,1.46-1.71,2.91-3.43,4.38-5.12,1.27-1.47,2.82-2.47,4.81-1.91.88.25,1.6,1.07,2.42,1.59.56.35,1.14.83,1.76.89,2.69.28,4.33,1.88,4.6,4.57.14,1.34-.51,2.33-1.3,3.26-5.41,6.33-10.83,12.65-16.25,18.98-.81.95-1.63,1.89-2.47,2.82-.86.94-1.93,1.35-3.23,1.36-8.17.04-16.33.03-24.49.23-5.65.14-11.09-.96-16.51-2.31-4.4-1.09-8.79-2.23-13.24-3.07-2.09-.4-4.31-.17-6.48-.16-2.79,0-5.58.07-8.37.12-.87.02-1.21-.34-1.55-1.2-1.35-3.44-2.85-6.82-4.34-10.21-1.48-3.38-3.01-6.74-4.57-10.23Z"/>
        <path class="cls-2" d="m79.75,58.81c-.64-1.97-1.19-3.93-1.95-5.79-.17-.42-1.09-.67-1.7-.76-6.39-.94-12.24-3.19-17.29-7.24-6.14-4.93-9.47-11.56-11.15-19.14-.88-3.98-.97-8-.9-12.05.02-1.13.63-1.19,1.45-1.15,7.89.32,15.27,2.26,21.84,6.81,6.38,4.42,10.33,10.5,12.17,17.97.36,1.48.35,3.05.51,4.58.07.73.14,1.46.22,2.42,5.42-16.23,17.66-20.87,33.31-20.48-.13,1.53-.19,2.92-.37,4.29-.86,6.62-3.1,12.66-7.66,17.69-3.63,4.01-8.1,6.63-13.4,7.72-2.19.45-4.43.66-6.66.84-1.02.08-1.71.26-2.06,1.35-.33,1.01-.86,1.96-1.37,3.08.68.22,1.21.41,1.76.57,5.97,1.65,10.45,5.12,13.23,10.73.23.47,1.02.81,1.61.93,4.58.92,7.93,3.55,10.28,7.48,1.66,2.77,1.87,5.86,1.73,9.07-1.24-.46-2.38-.82-3.46-1.32-.3-.14-.54-.7-.58-1.09-.23-2.15-.78-4.15-2.11-5.91-2.23-2.96-5.28-4.25-8.86-4.31-1.26-.02-1.39-.81-1.69-1.6-1.83-4.96-5.36-8.19-10.33-9.75-6.65-2.08-13.71.35-17.82,6.02-.67.92-1.35,1.25-2.48,1.21-5.69-.19-10.55,3.51-11.91,9.04-.21.86-.67,1.21-1.47,1.18-.95-.04-1.9-.15-3.1-.25.26-1.04.41-2.05.76-2.99,2.55-6.78,7.56-10.41,14.65-11.38.46-.06,1.02-.24,1.3-.57,3.4-3.99,7.74-6.19,12.86-7,.16-.02.31-.09.63-.18Zm2.73-.54c.64-1.26,1.07-2.2,1.57-3.1,2.89-5.25,6.4-10.01,10.88-14.03.99-.89.96-1.34-.04-2.47-.88-1-1.31.01-1.78.43-3.49,3.07-6.45,6.6-8.92,10.53-.25.4-.55.77-.89,1.26-.23-.42-.39-.66-.5-.92-2.6-5.85-5.99-11.21-10.02-16.17-1.31-1.61-1.61-1.64-3.15-.26-.66.6-.7,1.08-.07,1.77,4.9,5.39,8.46,11.59,11.13,18.34.56,1.42,1.11,2.84,1.81,4.63Z"/>
        <path class="cls-2" d="m82.93,79.04c.01,1.58-1.26,2.92-2.78,2.94-1.48.02-2.97-1.49-2.94-2.98.02-1.54,1.34-2.83,2.9-2.83,1.58,0,2.81,1.26,2.82,2.87Z"/>
        <path class="cls-2" d="m60.41,77.98c.01-1.34.75-2.02,2.14-1.99,1.27.02,2.16.81,2.17,1.91,0,1.23-.97,2.27-2.16,2.3-1.3.03-2.16-.86-2.15-2.21Z"/>
        <path class="cls-2" d="m98.25,81.99c1.2,0,1.64.47,1.67,1.75.02,1.18-.65,1.9-1.8,1.93-1.01.03-1.82-.82-1.84-1.94-.02-1.29.49-1.75,1.97-1.75Z"/>
        <path class="cls-2" d="m86.4,70.1c-.02,1.17-.62,1.72-1.8,1.67-1.09-.05-1.93-.89-1.88-1.89.04-.83,1.1-1.81,1.94-1.79.99.03,1.77.92,1.75,2.01Z"/>
      </g>
      <rect class="cls-1" width="137.63" height="137.63"/>
    </g>
  </g>
</svg>