<?xml version="1.0" encoding="UTF-8"?>
<svg id="Layer_2" data-name="Layer 2" xmlns="http://www.w3.org/2000/svg" viewBox="0 0 137.63 137.63">
  <defs>
    <style>
      .cls-1 {
        fill: none;
      }

      .cls-2 {
        fill: #007548;
      }
    </style>
  </defs>
  <g id="Layer_1-2" data-name="Layer 1">
    <g>
      <g>
        <path class="cls-2" d="m57.45,60.51c-.28.26-.47.4-.61.58-2.37,3.01-4.72,6.04-7.13,9.01-.64.78-.63,1.23.13,1.93,5.21,4.79,10.33,9.69,15.59,14.43,2.12,1.91,2.78,4.07,2.3,6.81-1.68,9.54-3.29,19.1-4.93,28.66-.11.61-.25,1.22-.4,1.83-.71,2.95-2.64,4.67-5.69,4.58-1.74-.05-3.55-.45-5.17-1.1-2.76-1.1-3.73-2.75-3.41-5.71.85-7.99,1.81-15.97,2.78-23.94.09-.76.03-1.21-.64-1.66-3.98-2.67-7.99-5.29-11.86-8.11-2.82-2.05-5.56-4.26-8.13-6.61-2.99-2.73-3.99-6.21-2.7-10.13.92-2.8,2.02-5.54,3.12-8.27.28-.69.2-1.1-.38-1.47-1.4-.9-2.77-1.85-4.23-2.65-.3-.16-.96.13-1.35.38-1.96,1.22-3.94,1.77-6.1.52-2.11-1.22-3.15-3.09-3.05-5.47.04-1,.46-2.03.87-2.97,2.97-6.83,5.98-13.63,8.99-20.44,1.52-3.44,4.49-5.03,8.19-4.3,6.37,1.26,12.72,2.57,19.08,3.88,2.57.53,5.14,1.04,7.67,1.69,2.24.57,4.29,1.58,6.04,3.15,2.02,1.82,3.05,4.15,3.36,6.78.64,5.46,1.18,10.93,1.77,16.39.25,2.32.46,4.64.8,6.95.09.61.49,1.24.89,1.74,3.18,4.07,6.42,8.09,9.57,12.18.83,1.07,1.57,2.26,2.09,3.51,1,2.42-.19,4.27-1.92,5.85-1.74,1.6-3.84,1.97-5.75,1.03-.59-.29-1.2-.61-1.69-1.05-4.6-4.1-9.09-8.34-13.8-12.31-2.73-2.3-3.34-5.16-3.46-8.42-.08-2.12-.4-4.23-.62-6.34-.03-.27-.12-.53-.22-.94Zm-15.08-17.5c-1.97-.6-3.97-1.23-5.98-1.79-.19-.05-.59.27-.74.52-1.98,3.37-3.9,6.77-5.92,10.12-.6,1-.44,1.54.53,2.09.97.55,1.92,1.17,2.79,1.87.72.58,1.1.46,1.56-.28,2.5-4.07,5.02-8.12,7.76-12.52Z"/>
        <path class="cls-2" d="m75.35,7.89c7.01-.03,13.13,6.1,13.18,13.19.05,7.15-6.08,13.6-13.19,13.5-7.47-.11-13.38-5.95-13.46-13.62-.08-6.86,6.3-13.04,13.47-13.07Z"/>
        <path class="cls-2" d="m23.26,122.74c-5.22.24-8.89-4.33-7.28-9,1.43-4.16,3.25-8.18,4.91-12.26,1.82-4.5,3.69-8.99,5.45-13.52.42-1.09.84-1.01,1.6-.44,3.83,2.93,7.67,5.85,11.52,8.76.59.44.88.79.44,1.62-3.38,6.39-6.69,12.83-10.04,19.23-.58,1.1-1.21,2.19-1.98,3.16-1.23,1.55-2.76,2.68-4.61,2.44Z"/>
        <path class="cls-2" d="m85.58,94.78c1.41-1.47,2.8-2.92,4.3-4.49,1.71,1.04,3.64,2.17,5.52,3.37,8.28,5.28,16.54,10.58,24.82,15.86,1.65,1.05,2.24,2.22,1.55,4.01-1.9,4.92-3.9,9.81-5.94,14.67-.64,1.53-1.74,1.87-3.03,1.22-1.15-.58-1.46-1.67-.88-3.08,1.44-3.45,2.86-6.91,4.33-10.35.44-1.04.24-1.55-.77-2.18-5.34-3.31-10.6-6.74-15.9-10.11-4.6-2.92-9.21-5.82-13.81-8.73-.09-.06-.15-.18-.18-.21Z"/>
        <path class="cls-2" d="m109.34,112.99c1.37.92,2.51,1.67,3.72,2.48-1.09,2.71-2.11,5.38-3.23,8-.37.88-1.71,1.22-2.74.87-.84-.28-1.56-1.44-1.24-2.33,1.08-2.96,2.26-5.88,3.48-9.03Z"/>
        <path class="cls-2" d="m102.57,119.21c-1.62-.31-2.61-1.48-2.18-2.83.68-2.13,1.51-4.22,2.36-6.28.09-.22.89-.4,1.18-.25.84.43,1.64,1,2.35,1.62.24.21.34.82.22,1.14-.65,1.7-1.31,3.42-2.15,5.03-.35.66-1.17,1.06-1.78,1.58Z"/>
        <path class="cls-2" d="m97.4,113.23c-2.06,0-3.12-1.51-2.54-2.98.56-1.43,1.11-2.86,1.74-4.25.1-.23.59-.29.9-.41.05-.02.13.09.2.13q3.11,1.69,1.71,4.93c-.2.46-.29,1-.6,1.36-.48.55-1.11.97-1.41,1.22Z"/>
      </g>
      <rect class="cls-1" width="137.63" height="137.63"/>
    </g>
  </g>
</svg>