<?xml version="1.0" encoding="UTF-8"?>
<svg id="Layer_2" data-name="Layer 2" xmlns="http://www.w3.org/2000/svg" viewBox="0 0 287.33 126.74">
  <defs>
    <style>
      .cls-1 {
        fill: #7fbba4;
      }

      .cls-2 {
        fill: #007749;
      }

      .cls-3 {
        fill: #409977;
      }

      .cls-4 {
        fill: #bfddd1;
      }

      .cls-5 {
        fill: #f7f0f5;
      }
    </style>
  </defs>
  <g id="Layer_1-2" data-name="Layer 1">
    <g>
      <g>
        <g>
          <path class="cls-5" d="m20.01,85.44c-1.58.54-4.58,1.28-7.58,1.28-4.14,0-7.14-1.04-9.23-3.03-2.06-1.99-3.2-4.95-3.2-8.29.03-7.55,5.53-11.86,12.97-11.86,2.93,0,5.19.57,6.3,1.08l-1.08,4.14c-1.25-.57-2.76-.98-5.26-.98-4.28,0-7.55,2.39-7.55,7.34s2.96,7.45,7.18,7.45c1.15,0,2.09-.13,2.49-.3v-4.78h-3.5v-4.01h8.46v11.96Z"/>
          <path class="cls-5" d="m23.96,75.43c0-2.43-.03-4.01-.13-5.42h4.38l.2,3.03h.13c.84-2.43,2.83-3.44,4.45-3.44.47,0,.71.03,1.08.1v4.82c-.4-.07-.81-.13-1.38-.13-1.89,0-3.17,1.01-3.5,2.59-.07.34-.1.74-.1,1.15v8.36h-5.12v-11.05Z"/>
          <path class="cls-5" d="m40.43,79.88c.13,2.12,2.26,3.13,4.65,3.13,1.75,0,3.17-.24,4.55-.71l.67,3.47c-1.68.71-3.74,1.04-5.96,1.04-5.59,0-8.79-3.23-8.79-8.39,0-4.18,2.59-8.79,8.32-8.79,5.32,0,7.34,4.14,7.34,8.22,0,.88-.1,1.65-.17,2.02h-10.61Zm6.03-3.5c0-1.25-.54-3.34-2.9-3.34-2.16,0-3.03,1.99-3.17,3.34h6.06Z"/>
          <path class="cls-5" d="m58.22,79.88c.13,2.12,2.26,3.13,4.65,3.13,1.75,0,3.17-.24,4.55-.71l.67,3.47c-1.68.71-3.74,1.04-5.96,1.04-5.59,0-8.79-3.23-8.79-8.39,0-4.18,2.59-8.79,8.32-8.79,5.32,0,7.34,4.14,7.34,8.22,0,.88-.1,1.65-.17,2.02h-10.61Zm6.03-3.5c0-1.25-.54-3.34-2.9-3.34-2.16,0-3.03,1.99-3.17,3.34h6.06Z"/>
          <path class="cls-5" d="m72.07,75.26c0-2.06-.07-3.77-.13-5.26h4.45l.24,2.29h.1c.67-1.08,2.32-2.66,5.09-2.66,3.37,0,5.9,2.26,5.9,7.11v9.74h-5.12v-9.13c0-2.12-.74-3.57-2.59-3.57-1.41,0-2.26.98-2.63,1.92-.13.34-.17.81-.17,1.28v9.5h-5.12v-11.22Z"/>
          <path class="cls-5" d="m92.16,81.19c1.35.71,3.5,1.41,5.69,1.41,2.36,0,3.6-.98,3.6-2.46s-1.08-2.22-3.81-3.17c-3.77-1.35-6.27-3.44-6.27-6.74,0-3.87,3.27-6.81,8.59-6.81,2.59,0,4.45.51,5.79,1.15l-1.15,4.11c-.88-.44-2.53-1.08-4.72-1.08s-3.3,1.04-3.3,2.19c0,1.45,1.25,2.09,4.21,3.2,4.01,1.48,5.86,3.57,5.86,6.77,0,3.81-2.9,7.04-9.13,7.04-2.59,0-5.15-.71-6.43-1.41l1.04-4.21Z"/>
          <path class="cls-5" d="m113.05,70l1.35,6.77c.3,1.68.64,3.5.91,5.39h.1c.3-1.89.81-3.74,1.18-5.36l1.75-6.81h4.04l1.65,6.57c.47,1.89.91,3.71,1.21,5.59h.07c.24-1.85.57-3.74.98-5.63l1.38-6.54h5.02l-5.05,16.47h-4.78l-1.55-5.76c-.44-1.62-.74-3.1-1.08-5.15h-.07c-.3,2.06-.64,3.61-1.04,5.12l-1.65,5.79h-4.82l-4.82-16.47h5.22Z"/>
          <path class="cls-5" d="m148.56,82.5c0,1.55.07,3.07.27,3.98h-4.62l-.3-1.65h-.1c-1.08,1.31-2.76,2.02-4.72,2.02-3.34,0-5.32-2.43-5.32-5.05,0-4.28,3.84-6.3,9.67-6.3v-.2c0-.91-.47-2.16-3-2.16-1.68,0-3.47.57-4.55,1.25l-.94-3.3c1.15-.64,3.4-1.48,6.4-1.48,5.49,0,7.21,3.23,7.21,7.14v5.76Zm-4.95-3.81c-2.7,0-4.78.64-4.78,2.59,0,1.31.88,1.95,2.02,1.95,1.25,0,2.32-.84,2.66-1.89.07-.27.1-.57.1-.88v-1.79Z"/>
          <path class="cls-5" d="m152.64,75.43c0-2.43-.03-4.01-.13-5.42h4.38l.2,3.03h.13c.84-2.43,2.83-3.44,4.45-3.44.47,0,.71.03,1.08.1v4.82c-.4-.07-.81-.13-1.38-.13-1.89,0-3.17,1.01-3.5,2.59-.07.34-.1.74-.1,1.15v8.36h-5.12v-11.05Z"/>
          <path class="cls-5" d="m181.14,62.56v19c0,1.85.07,3.81.13,4.92h-4.55l-.2-2.39h-.1c-1.01,1.82-3.03,2.76-5.15,2.76-3.91,0-7.04-3.34-7.04-8.46-.03-5.56,3.44-8.79,7.38-8.79,2.06,0,3.61.74,4.35,1.85h.07v-8.89h5.12Zm-5.12,14.42c0-.27,0-.64-.07-.94-.3-1.35-1.41-2.49-3-2.49-2.36,0-3.54,2.09-3.54,4.68,0,2.8,1.38,4.55,3.5,4.55,1.48,0,2.7-1.01,3-2.46.07-.37.1-.77.1-1.18v-2.16Z"/>
          <path class="cls-5" d="m192.4,81.19c1.35.71,3.5,1.41,5.69,1.41,2.36,0,3.6-.98,3.6-2.46s-1.08-2.22-3.81-3.17c-3.77-1.35-6.27-3.44-6.27-6.74,0-3.87,3.27-6.81,8.59-6.81,2.59,0,4.45.51,5.79,1.15l-1.15,4.11c-.88-.44-2.53-1.08-4.72-1.08s-3.3,1.04-3.3,2.19c0,1.45,1.25,2.09,4.21,3.2,4.01,1.48,5.86,3.57,5.86,6.77,0,3.81-2.9,7.04-9.13,7.04-2.59,0-5.15-.71-6.44-1.41l1.04-4.21Z"/>
          <path class="cls-5" d="m210.26,75.53c0-2.16-.07-3.98-.13-5.53h4.45l.24,2.29h.07c1.21-1.72,3.1-2.66,5.49-2.66,3.61,0,6.84,3.13,6.84,8.39,0,6-3.81,8.83-7.48,8.83-1.99,0-3.54-.81-4.28-1.89h-.07v8.19h-5.12v-17.62Zm5.12,3.87c0,.4.03.74.1,1.08.34,1.38,1.52,2.43,3,2.43,2.22,0,3.54-1.85,3.54-4.65,0-2.63-1.18-4.62-3.47-4.62-1.45,0-2.73,1.08-3.07,2.59-.07.27-.1.61-.1.91v2.26Z"/>
          <path class="cls-5" d="m246.78,78.06c0,6.03-4.28,8.79-8.69,8.79-4.82,0-8.52-3.17-8.52-8.49s3.5-8.76,8.83-8.76c5.02,0,8.39,3.47,8.39,8.46Zm-11.93.17c0,2.83,1.18,4.95,3.37,4.95,2.02,0,3.27-1.99,3.27-4.99,0-2.43-.94-4.92-3.27-4.92s-3.37,2.53-3.37,4.95Z"/>
          <path class="cls-5" d="m249.95,75.43c0-2.43-.03-4.01-.13-5.42h4.38l.2,3.03h.13c.84-2.43,2.83-3.44,4.45-3.44.47,0,.71.03,1.08.1v4.82c-.4-.07-.81-.13-1.38-.13-1.89,0-3.17,1.01-3.5,2.59-.07.34-.1.74-.1,1.15v8.36h-5.12v-11.05Z"/>
          <path class="cls-5" d="m269.19,65.56v4.45h3.67v3.77h-3.67v5.96c0,1.99.51,2.9,2.02,2.9.71,0,1.04-.03,1.52-.13l.03,3.87c-.64.24-1.89.44-3.3.44-1.65,0-3.03-.57-3.87-1.41-.94-.98-1.42-2.56-1.42-4.89v-6.74h-2.19v-3.77h2.19v-3.07l5.02-1.38Z"/>
          <path class="cls-5" d="m275.79,82.03c.94.57,2.9,1.21,4.41,1.21s2.19-.51,2.19-1.35-.51-1.28-2.39-1.92c-3.44-1.15-4.75-3-4.72-4.95,0-3.1,2.63-5.42,6.7-5.42,1.92,0,3.61.47,4.62.98l-.88,3.54c-.74-.4-2.19-.94-3.57-.94-1.25,0-1.95.51-1.95,1.31s.64,1.21,2.66,1.92c3.13,1.08,4.41,2.7,4.45,5.09,0,3.1-2.39,5.36-7.11,5.36-2.16,0-4.08-.51-5.32-1.18l.91-3.64Z"/>
        </g>
        <g>
          <path class="cls-5" d="m114.73,118.69c-.91.44-3.07.98-5.79.98-7.85,0-11.89-4.92-11.89-11.39,0-7.75,5.53-12.03,12.4-12.03,2.66,0,4.68.51,5.59,1.01l-1.08,4.04c-1.01-.44-2.46-.84-4.31-.84-4.04,0-7.21,2.46-7.21,7.51,0,4.55,2.7,7.41,7.24,7.41,1.58,0,3.27-.3,4.31-.74l.74,4.04Z"/>
          <path class="cls-5" d="m133.6,110.87c0,6.03-4.28,8.79-8.69,8.79-4.82,0-8.52-3.17-8.52-8.49s3.5-8.76,8.83-8.76c5.02,0,8.39,3.47,8.39,8.46Zm-11.93.17c0,2.83,1.18,4.95,3.37,4.95,2.02,0,3.27-1.99,3.27-4.99,0-2.43-.94-4.92-3.27-4.92s-3.37,2.53-3.37,4.95Z"/>
          <path class="cls-5" d="m136.77,108.07c0-2.06-.07-3.77-.13-5.26h4.45l.24,2.29h.1c.67-1.08,2.33-2.66,5.09-2.66,3.37,0,5.9,2.26,5.9,7.11v9.74h-5.12v-9.13c0-2.12-.74-3.57-2.59-3.57-1.42,0-2.26.98-2.63,1.92-.13.34-.17.81-.17,1.28v9.5h-5.12v-11.22Z"/>
          <path class="cls-5" d="m156.48,114.84c.94.57,2.9,1.21,4.41,1.21s2.19-.51,2.19-1.35-.51-1.28-2.39-1.92c-3.44-1.15-4.75-3-4.72-4.95,0-3.1,2.63-5.42,6.7-5.42,1.92,0,3.61.47,4.62.98l-.88,3.54c-.74-.4-2.19-.94-3.57-.94-1.25,0-1.95.51-1.95,1.31s.64,1.21,2.66,1.92c3.13,1.08,4.41,2.7,4.45,5.09,0,3.1-2.39,5.36-7.11,5.36-2.16,0-4.08-.51-5.32-1.18l.91-3.64Z"/>
          <path class="cls-5" d="m186.67,114c0,2.16.07,3.91.13,5.29h-4.45l-.24-2.32h-.1c-.64,1.01-2.19,2.7-5.15,2.7-3.37,0-5.79-2.09-5.79-7.18v-9.67h5.12v8.86c0,2.39.78,3.84,2.59,3.84,1.42,0,2.26-.98,2.56-1.79.13-.3.2-.67.2-1.11v-9.8h5.12v11.19Z"/>
          <path class="cls-5" d="m190.78,95.37h5.12v23.92h-5.12v-23.92Z"/>
          <path class="cls-5" d="m205.77,98.37v4.45h3.67v3.77h-3.67v5.96c0,1.99.51,2.9,2.02,2.9.71,0,1.04-.03,1.52-.13l.03,3.87c-.64.24-1.89.44-3.3.44-1.65,0-3.03-.57-3.87-1.41-.94-.98-1.42-2.56-1.42-4.89v-6.74h-2.19v-3.77h2.19v-3.07l5.02-1.38Z"/>
          <path class="cls-5" d="m226.12,115.32c0,1.55.07,3.07.27,3.98h-4.62l-.3-1.65h-.1c-1.08,1.31-2.76,2.02-4.72,2.02-3.34,0-5.32-2.43-5.32-5.05,0-4.28,3.84-6.3,9.67-6.3v-.2c0-.91-.47-2.16-3-2.16-1.68,0-3.47.57-4.55,1.25l-.94-3.3c1.15-.64,3.4-1.48,6.4-1.48,5.49,0,7.21,3.23,7.21,7.14v5.76Zm-4.95-3.81c-2.69,0-4.78.64-4.78,2.59,0,1.31.88,1.95,2.02,1.95,1.25,0,2.32-.84,2.66-1.89.07-.27.1-.57.1-.88v-1.79Z"/>
          <path class="cls-5" d="m230.2,108.07c0-2.06-.07-3.77-.13-5.26h4.45l.24,2.29h.1c.67-1.08,2.33-2.66,5.09-2.66,3.37,0,5.9,2.26,5.9,7.11v9.74h-5.12v-9.13c0-2.12-.74-3.57-2.59-3.57-1.42,0-2.26.98-2.63,1.92-.13.34-.17.81-.17,1.28v9.5h-5.12v-11.22Z"/>
          <path class="cls-5" d="m262.31,118.85c-.91.44-2.63.77-4.58.77-5.32,0-8.73-3.27-8.73-8.42,0-4.82,3.3-8.76,9.43-8.76,1.35,0,2.83.24,3.91.64l-.81,3.81c-.61-.27-1.52-.51-2.86-.51-2.7,0-4.45,1.92-4.41,4.62,0,3,2.02,4.62,4.51,4.62,1.21,0,2.16-.2,2.93-.54l.61,3.77Z"/>
          <path class="cls-5" d="m269.49,102.82l2.46,8.12c.27.94.61,2.19.81,3.07h.13c.2-.91.47-2.12.71-3.1l2.06-8.09h5.46l-3.84,10.85c-2.36,6.57-3.94,9.16-5.79,10.81-1.75,1.55-3.64,2.12-4.92,2.26l-1.11-4.31c.64-.13,1.45-.44,2.22-.88.77-.4,1.65-1.25,2.12-2.06.17-.27.27-.54.27-.74s-.03-.44-.2-.84l-6.06-15.09h5.69Z"/>
          <path class="cls-5" d="m281.28,116.56c0-1.85,1.25-3.13,3.03-3.13s2.96,1.25,3,3.13c0,1.79-1.21,3.1-3.07,3.1-1.72,0-2.97-1.31-2.97-3.1Z"/>
        </g>
      </g>
      <g>
        <path class="cls-4" d="m287.33,0c-17.41,16.36-24.44,38.13-27.14,50.19-.23,1.04-.43,2-.6,2.88-.06.29-.11.58-.16.86-.18.93-.31,1.76-.43,2.47-.03.23-.06.45-.09.65-.13.83-.2,1.44-.24,1.79-.01.08-.02.15-.02.2-.01.11-.02.16-.02.16h-7.43s-3.32-35.35-28.7-59.2c.64.35,21.39,11.95,32.42,45.94.25-.78.51-1.54.77-2.29.28-.82,1.31-3.6,1.54-4.18C268.61,10.46,286.73.33,287.33,0Z"/>
        <path class="cls-1" d="m276.75,0c-17.41,16.36-24.44,38.13-27.14,50.19-.23,1.04-.43,2-.6,2.88-.06.29-.11.58-.16.86-.18.93-.31,1.76-.43,2.47-.03.23-.06.45-.09.65-.13.83-.2,1.44-.24,1.79-.01.08-.02.15-.02.2-.01.11-.02.16-.02.16h-7.43s-3.32-35.35-28.7-59.2c.64.35,21.39,11.95,32.42,45.94.25-.78.51-1.54.77-2.29.28-.82,1.31-3.6,1.54-4.18C258.03,10.46,276.15.33,276.75,0Z"/>
        <path class="cls-3" d="m266.17,0c-17.41,16.36-24.44,38.13-27.14,50.19-.23,1.04-.43,2-.6,2.88-.06.29-.11.58-.16.86-.18.93-.31,1.76-.43,2.47-.03.23-.06.45-.09.65-.13.83-.2,1.44-.24,1.79-.01.08-.02.15-.02.2-.01.11-.02.16-.02.16h-7.43s-3.32-35.35-28.7-59.2c.64.35,21.39,11.95,32.42,45.94.25-.78.51-1.54.77-2.29.28-.82,1.31-3.6,1.54-4.18C247.45,10.46,265.57.33,266.17,0Z"/>
        <path class="cls-2" d="m255.6,0c-17.41,16.36-24.44,38.13-27.14,50.19-.23,1.04-.43,2-.6,2.88-.06.29-.11.58-.16.86-.18.93-.31,1.76-.43,2.47-.03.23-.06.45-.09.65-.13.83-.2,1.44-.24,1.79-.01.08-.02.15-.02.2-.01.11-.02.16-.02.16h-7.43s-3.32-35.35-28.7-59.2c.64.35,21.39,11.95,32.42,45.94.25-.78.51-1.54.77-2.29.28-.82,1.31-3.6,1.54-4.18C236.88,10.46,255,.33,255.6,0Z"/>
      </g>
    </g>
  </g>
</svg>