<?xml version="1.0" encoding="UTF-8"?>
<svg id="Layer_2" data-name="Layer 2" xmlns="http://www.w3.org/2000/svg" viewBox="0 0 96.56 59.2">
  <defs>
    <style>
      .cls-1 {
        fill: #7fbba4;
      }

      .cls-2 {
        fill: #007749;
      }

      .cls-3 {
        fill: #409977;
      }

      .cls-4 {
        fill: #bfddd1;
      }
    </style>
  </defs>
  <g id="Layer_1-2" data-name="Layer 1">
    <g>
      <path class="cls-4" d="m96.56,0c-17.41,16.36-24.44,38.13-27.14,50.19-.23,1.04-.43,2-.6,2.88-.06.29-.11.58-.16.86-.18.93-.31,1.76-.43,2.47-.03.23-.06.45-.09.65-.13.83-.2,1.44-.24,1.79-.01.08-.02.15-.02.2-.01.11-.02.16-.02.16h-7.43S57.11,23.85,31.73,0c.64.35,21.39,11.95,32.42,45.94.25-.78.51-1.54.77-2.29.28-.82,1.31-3.6,1.54-4.18C77.84,10.46,95.96.33,96.56,0Z"/>
      <path class="cls-1" d="m85.98,0c-17.41,16.36-24.44,38.13-27.14,50.19-.23,1.04-.43,2-.6,2.88-.06.29-.11.58-.16.86-.18.93-.31,1.76-.43,2.47-.03.23-.06.45-.09.65-.13.83-.2,1.44-.24,1.79-.01.08-.02.15-.02.2-.01.11-.02.16-.02.16h-7.43S46.53,23.85,21.15,0c.64.35,21.39,11.95,32.42,45.94.25-.78.51-1.54.77-2.29.28-.82,1.31-3.6,1.54-4.18C67.26,10.46,85.38.33,85.98,0Z"/>
      <path class="cls-3" d="m75.41,0c-17.41,16.36-24.44,38.13-27.14,50.19-.23,1.04-.43,2-.6,2.88-.06.29-.11.58-.16.86-.18.93-.31,1.76-.43,2.47-.03.23-.06.45-.09.65-.13.83-.2,1.44-.24,1.79-.01.08-.02.15-.02.2-.01.11-.02.16-.02.16h-7.43S35.96,23.85,10.58,0c.64.35,21.39,11.95,32.42,45.94.25-.78.51-1.54.77-2.29.28-.82,1.31-3.6,1.54-4.18C56.69,10.46,74.81.33,75.41,0Z"/>
      <path class="cls-2" d="m64.83,0c-17.41,16.36-24.44,38.13-27.14,50.19-.23,1.04-.43,2-.6,2.88-.06.29-.11.58-.16.86-.18.93-.31,1.76-.43,2.47-.03.23-.06.45-.09.65-.13.83-.2,1.44-.24,1.79-.01.08-.02.15-.02.2-.01.11-.02.16-.02.16h-7.43S25.38,23.85,0,0c.64.35,21.39,11.95,32.42,45.94.25-.78.51-1.54.77-2.29.28-.82,1.31-3.6,1.54-4.18C46.11,10.46,64.23.33,64.83,0Z"/>
    </g>
  </g>
</svg>